<svg xmlns="http://www.w3.org/2000/svg" viewBox="0 0 512 512">
  <rect width="512" height="512" rx="110" fill="#1a1a2e"/>
  <rect x="80" y="155" width="340" height="210" rx="28" fill="#2d2d50" transform="rotate(-4 256 260)"/>
  <rect x="72" y="170" width="368" height="210" rx="28" fill="#7c6af7"/>
  <rect x="72" y="198" width="368" height="40" fill="#5a50c8"/>
  <rect x="108" y="268" width="6" height="60" rx="2" fill="white" opacity="0.9"/>
  <rect x="120" y="268" width="3" height="60" rx="2" fill="white" opacity="0.9"/>
  <rect x="129" y="268" width="8" height="60" rx="2" fill="white" opacity="0.9"/>
  <rect x="143" y="268" width="4" height="60" rx="2" fill="white" opacity="0.9"/>
  <rect x="153" y="268" width="7" height="60" rx="2" fill="white" opacity="0.9"/>
  <rect x="166" y="268" width="3" height="60" rx="2" fill="white" opacity="0.9"/>
  <rect x="175" y="268" width="9" height="60" rx="2" fill="white" opacity="0.9"/>
  <rect x="190" y="268" width="4" height="60" rx="2" fill="white" opacity="0.9"/>
  <rect x="200" y="268" width="6" height="60" rx="2" fill="white" opacity="0.9"/>
  <rect x="212" y="268" width="3" height="60" rx="2" fill="white" opacity="0.9"/>
  <rect x="221" y="268" width="8" height="60" rx="2" fill="white" opacity="0.9"/>
  <rect x="235" y="268" width="5" height="60" rx="2" fill="white" opacity="0.9"/>
  <rect x="246" y="268" width="3" height="60" rx="2" fill="white" opacity="0.9"/>
  <rect x="255" y="268" width="7" height="60" rx="2" fill="white" opacity="0.9"/>
  <rect x="268" y="268" width="4" height="60" rx="2" fill="white" opacity="0.9"/>
  <rect x="278" y="268" width="9" height="60" rx="2" fill="white" opacity="0.9"/>
  <rect x="293" y="268" width="3" height="60" rx="2" fill="white" opacity="0.9"/>
  <rect x="302" y="268" width="6" height="60" rx="2" fill="white" opacity="0.9"/>
  <rect x="314" y="268" width="4" height="60" rx="2" fill="white" opacity="0.9"/>
  <rect x="324" y="268" width="8" height="60" rx="2" fill="white" opacity="0.9"/>
  <rect x="338" y="268" width="3" height="60" rx="2" fill="white" opacity="0.9"/>
  <rect x="347" y="268" width="7" height="60" rx="2" fill="white" opacity="0.9"/>
  <rect x="360" y="268" width="4" height="60" rx="2" fill="white" opacity="0.9"/>
  <rect x="370" y="268" width="6" height="60" rx="2" fill="white" opacity="0.9"/>
  <rect x="382" y="268" width="3" height="60" rx="2" fill="white" opacity="0.9"/>
  <rect x="391" y="268" width="9" height="60" rx="2" fill="white" opacity="0.9"/>
  <text x="256" y="358" font-family="monospace" font-size="22" fill="white" opacity="0.6" text-anchor="middle" letter-spacing="3">1234 5678 9012</text>
</svg>
